<?xml version="1.0" encoding="utf-8"?>
<!-- Generator: Adobe Illustrator 16.0.0, SVG Export Plug-In . SVG Version: 6.00 Build 0)  -->
<!DOCTYPE svg PUBLIC "-//W3C//DTD SVG 1.1//EN" "http://www.w3.org/Graphics/SVG/1.1/DTD/svg11.dtd">
<svg version="1.1" id="图层_1" xmlns="http://www.w3.org/2000/svg" xmlns:xlink="http://www.w3.org/1999/xlink" x="0px" y="0px"
	 width="100px" height="100px" viewBox="0 0 100 100" enable-background="new 0 0 100 100" xml:space="preserve">
<path d="M71.193,24.624c-3.717-5.281-7.611-10.437-11.68-15.455c-1.393-1.724-2.689-3.288-3.852-4.663
	c-0.408-0.484-0.771-0.909-1.083-1.274l-0.396-0.455L51.755,0l-2.429,2.776L48.93,3.231c-1.674,1.955-3.319,3.935-4.936,5.937
	c-4.066,5.019-7.962,10.174-11.681,15.455c-3.042,4.335-5.78,8.548-8.141,12.569c-5.924,10.098-9.241,18.553-9.241,25.126
	c0,20.793,16.466,37.681,36.82,37.682c20.353,0,36.821-16.887,36.821-37.682c0-6.572-3.315-15.027-9.24-25.125
	C76.973,33.173,74.234,28.959,71.193,24.624z M51.754,93.542c-16.75,0-30.366-13.962-30.366-31.224
	c0-5.113,2.971-12.683,8.355-21.857c2.264-3.86,4.91-7.93,7.858-12.132c3.633-5.16,7.44-10.197,11.415-15.102
	c0.965-1.195,1.88-2.313,2.735-3.337c0.921,1.105,1.835,2.218,2.74,3.337c3.975,4.903,7.782,9.941,11.414,15.102
	c2.948,4.202,5.594,8.271,7.86,12.132c5.383,9.175,8.354,16.746,8.354,21.857C82.12,79.582,68.505,93.542,51.754,93.542z"/>
<path d="M26.064,63.003c0,14.238,11.502,25.779,25.689,25.779S77.443,77.24,77.443,63.003c0-14.236-13.351-7.028-25.689,0
	C39.363,70.063,26.064,48.767,26.064,63.003z"/>
<path d="M24,31.071c0-1.149-0.477-2.379-1.318-3.745c-0.448-0.731-0.995-1.486-1.62-2.261c-0.849-1.044-1.755-2.039-2.718-2.98
	l-1.117-1.07l-1.116,1.07c-0.963,0.941-1.87,1.938-2.719,2.981c-1.838,2.274-2.938,4.248-2.938,6.004
	c0,3.768,3.027,6.828,6.773,6.829C20.972,37.899,24,34.839,24,31.071z M13.683,31.069c0-0.762,0.836-2.261,2.221-3.975
	c0.424-0.523,0.865-1.033,1.324-1.528c0.458,0.494,0.9,1.003,1.325,1.526c0.5,0.611,0.961,1.252,1.381,1.922
	c0.554,0.9,0.841,1.635,0.841,2.055c0,1.993-1.592,3.601-3.546,3.601C15.273,34.67,13.683,33.062,13.683,31.069z"/>
<path d="M80.346,25.632c5.086,0,9.2-4.159,9.2-9.283c0-1.52-0.655-3.211-1.823-5.108c-0.707-1.13-1.483-2.215-2.328-3.245
	c-1.123-1.384-2.317-2.71-3.582-3.97l-0.348-0.343l-1.117-1.068L79.23,3.683c-1.392,1.361-2.705,2.803-3.932,4.313
	c-2.6,3.214-4.154,6.005-4.154,8.353C71.145,21.473,75.261,25.632,80.346,25.632z M77.809,10.026
	c0.805-0.997,1.656-1.952,2.555-2.864c0.877,0.922,1.72,1.876,2.521,2.864c0.76,0.922,1.454,1.892,2.09,2.903
	c0.881,1.435,1.344,2.63,1.344,3.419c0,3.348-2.678,6.055-5.973,6.055c-3.294,0-5.974-2.708-5.974-6.055
	C74.372,14.995,75.664,12.677,77.809,10.026z"/>
</svg>
